# xmcd CD database file
#
# Track frame offsets:
#	150
#	23114
#	42030
#	62138
#	77627
#	92909
#	111544
#	126653
#	147738
#	160810
#	177815
#	197934
#
# Disc length: 3070 seconds
#
# Revision: 2
# Processed by: cddbd v1.5PL3 Copyright (c) Steve Scherf et al.
# Submitted via: CDex 1.51
#
DISCID=b00bfc0c
DTITLE=Sojaro - Tokusen II [CD2)
DYEAR=1994
DGENRE=New Age
TTITLE0=Tao
TTITLE1=Air
TTITLE2=Apple Tree
TTITLE3=Rainbow
TTITLE4=Fresh Air
TTITLE5=Lrie No Hotori
TTITLE6=Ukigumo
TTITLE7=Kokoro
TTITLE8=The God Of Mother Earth
TTITLE9=Raindrops
TTITLE10=Breeze
TTITLE11=Sailing
EXTD=YEAR: 1994
EXTT0=
EXTT1=
EXTT2=
EXTT3=
EXTT4=
EXTT5=
EXTT6=
EXTT7=
EXTT8=
EXTT9=
EXTT10=
EXTT11=
PLAYORDER=
